<svg width="168" height="181" viewBox="0 0 168 181" fill="none" xmlns="http://www.w3.org/2000/svg">
<g filter="url(#filter0_d_1_385)">
<path d="M70.0846 66.9772L70.1853 57.3262L60.5136 56.8329L55.7586 64.0507L60.7139 73.4919H64.9311L70.0846 66.9772ZM93.0167 68.0361L92.8512 52.168L109.918 51.2977L118.092 63.7077L110.113 78.914H100.828L93.6124 69.7934L93.0167 68.0361ZM97.8151 57.3262L97.9153 66.9772L103.07 73.4913H107.292L112.244 64.0554L107.487 56.8329L97.8151 57.3262ZM88.4793 80.9577L84.0002 76.2345L79.5216 80.9583L76.1138 77.0613L82.2968 70.5406H85.7035L91.8876 77.0607L88.4793 80.9577ZM117.565 33.7235C118.99 37.478 122.17 45.8124 125.583 54.4268C130.479 66.7833 128.422 69.7345 124.299 75.6469C123.891 76.2315 123.475 76.8273 123.364 76.9905C120.56 81.1044 124.883 85.5395 124.896 85.5519L124.434 89.8408L109.503 99.4364L101.556 96.1216V137.843H96.6281V92.2027L99.9582 89.6717L109.039 93.4579L119.484 86.7452C117.731 83.8087 115.959 78.8515 119.437 73.75C119.976 72.958 120.193 72.6474 120.391 72.3645C123.342 68.1316 124.814 66.019 121.078 56.5866C116.312 44.5602 112.249 33.7548 112.237 33.7235H117.565ZM41.1526 33.7235C40.1268 51.1603 20.7615 59.2815 9.45607 46.8443C-2.18197 34.0406 5.99792 11.9306 22.6732 11.9306V17.3534C10.3693 17.3534 4.40329 33.6187 12.9415 43.0115C21.1445 52.036 35.1956 46.3446 36.2096 33.7235H41.1526ZM131.79 33.7235C132.805 46.3446 146.856 52.036 155.059 43.0115C163.597 33.6192 157.632 17.3534 145.327 17.3534V11.9306C162.003 11.9306 170.182 34.0418 158.543 46.8443C147.239 59.2815 127.874 51.1598 126.848 33.7235H131.79ZM51.1119 121.579H46.1839V100.351H51.1119V121.579ZM121.817 121.579H116.889V100.351H121.817V121.579ZM61.2421 137.843H56.3136V104.217H61.2421V137.843ZM111.687 137.843H106.758V104.217H111.687V137.843ZM71.3728 92.2027V137.843H66.4437V96.1216L58.4963 99.4364L43.5667 89.8408L43.1045 85.5519C43.1162 85.5395 47.44 81.1039 44.6359 76.9905C44.5239 76.8273 44.1093 76.2315 43.7012 75.6469C39.5793 69.7345 37.5214 66.7833 42.4178 54.4268C45.8309 45.8124 49.0111 37.478 50.4348 33.7235H55.7629C55.7511 33.7548 51.6882 44.5602 46.9226 56.5866C43.1853 66.019 44.6589 68.1316 47.6098 72.3645C47.8075 72.6474 48.0233 72.958 48.5633 73.75C52.0412 78.8515 50.2698 83.8087 48.5167 86.7452L58.9607 93.4579L68.0416 89.6717L71.3728 92.2027ZM81.503 137.843H76.5739V92.2027H81.503V137.843ZM91.4259 137.843H86.4974V92.2027H91.4259V137.843ZM83.9996 23.0761H145.398C152.885 23.0761 156.712 33.0788 151.376 38.9589L151.381 38.9636C146.446 44.3928 138.012 41.243 137.027 33.7235H142.084C142.968 36.3707 146.068 37.1415 147.896 35.1302C148.182 35.1302 150.074 32.0317 147.896 29.6356C147.258 28.9325 146.373 28.4976 145.398 28.4976L22.6014 28.4988C17.9515 28.4988 17.9515 36.2675 22.6014 36.2675C24.1039 36.2675 25.4136 35.2304 25.9166 33.7235H30.9736C29.987 41.243 21.5548 44.3928 16.6198 38.9636C11.3019 33.1142 15.0906 23.0761 22.6014 23.0761H83.9996ZM86.4642 155.647H120.658V161.07H47.342V155.647H86.4642ZM84.0002 11.9306H145.327V17.3534H22.6732V11.9306H84.0002ZM86.4642 144.501H111.687V149.923H56.3141V144.501H86.4642ZM84.0002 0.785797H132.239V6.20853H35.7618V0.785797H84.0002ZM37.2182 172.214H133.696V166.792H85.4577H37.2182V172.214ZM75.1218 54.7686L74.9831 68.0361L74.3863 69.7934L67.1717 78.914H57.8819L49.9045 63.7118L58.0823 51.2977L75.1486 52.168L75.1218 54.7686Z" fill="#3A3A38"/>
</g>
<defs>
<filter id="filter0_d_1_385" x="0" y="0.785645" width="168" height="179.429" filterUnits="userSpaceOnUse" color-interpolation-filters="sRGB">
<feFlood flood-opacity="0" result="BackgroundImageFix"/>
<feColorMatrix in="SourceAlpha" type="matrix" values="0 0 0 0 0 0 0 0 0 0 0 0 0 0 0 0 0 0 127 0" result="hardAlpha"/>
<feOffset dy="4"/>
<feGaussianBlur stdDeviation="2"/>
<feComposite in2="hardAlpha" operator="out"/>
<feColorMatrix type="matrix" values="0 0 0 0 0 0 0 0 0 0 0 0 0 0 0 0 0 0 0.25 0"/>
<feBlend mode="normal" in2="BackgroundImageFix" result="effect1_dropShadow_1_385"/>
<feBlend mode="normal" in="SourceGraphic" in2="effect1_dropShadow_1_385" result="shape"/>
</filter>
</defs>
</svg>
