<svg width="161" height="161" viewBox="0 0 161 161" fill="none" xmlns="http://www.w3.org/2000/svg">
<path d="M70.2968 50.287C77.3013 51.3529 84.8941 51.3504 91.8978 50.2794L97.9119 34.8443L64.2703 34.8561L70.2968 50.287ZM87.9916 56.3968L98.6095 145.029L80.7833 160.5L62.9482 145.042L73.5062 56.332C76.003 56.5826 78.5405 56.7229 81.0999 56.7221C83.4186 56.7213 85.7205 56.6044 87.9916 56.3968Z" fill="#3A3A38"/>
<path d="M56.7988 23.7432H104.76L109.343 16.4674H52.2161L56.7988 23.7432ZM159.722 23.496C157.434 15.6856 151.807 9.39674 144.526 5.33307C140.892 3.30627 136.899 1.8755 132.759 1.13826C131.278 0.874298 129.786 0.70784 128.282 0.620422C127.655 0.584274 126.011 0.506088 125.757 0.501053V0.500198H35.9069L35.906 0.501053C35.6528 0.506088 34.0106 0.584274 33.3836 0.620422C31.8807 0.70784 30.3875 0.874298 28.9067 1.13826C24.7668 1.8755 20.7733 3.30627 17.1405 5.33307C9.8581 9.39674 4.23118 15.6856 1.94425 23.496C-0.259771 31.0215 0.855909 39.2505 4.92528 46.0287C9.04581 52.8925 16.2532 57.8313 24.5304 58.8998C32.2793 59.9001 40.3581 57.3404 45.8263 51.9863C51.0678 46.8542 53.1492 39.5254 51.1816 32.5935C49.31 25.9969 43.8701 20.4193 36.6521 19.2348C30.0453 18.1512 22.9702 20.8657 19.7317 26.6098C17.7764 30.0791 17.5541 34.3874 19.6267 37.8593C21.537 41.0604 25.1778 43.3781 29.1325 43.0469C31.1769 42.8762 33.2133 42.0516 34.621 40.6048C35.017 40.1971 35.3618 39.744 35.6396 39.2556C35.8372 38.9067 35.9527 38.8327 35.6035 38.6226C35.196 38.3779 34.9499 38.0989 34.5451 38.3864C34.0627 38.7293 33.612 39.1253 33.1075 39.4372C32.3173 39.9247 31.2228 40.1256 30.2976 40.1593C28.329 40.2299 26.6427 39.4111 25.2933 38.0871C23.7975 36.5899 23.1925 33.8906 23.8645 31.8251C24.496 29.8858 25.9742 28.244 27.7813 27.1982C29.8592 25.9961 32.379 25.6556 34.748 26.123C36.8417 26.5358 38.7529 27.7161 40.0865 28.9426C41.3256 30.2523 42.3178 31.6822 42.9299 33.3576C44.2679 37.0228 43.7043 41.1748 41.323 44.3364C38.9293 47.5141 35.0584 49.6384 31.0446 50.3058C26.7715 51.0154 22.3061 50.1032 18.7448 47.7402C15.4727 45.5697 12.9767 42.3492 11.5356 38.8227C8.65246 31.7671 10.0936 23.4935 15.1587 17.6712C19.0852 13.1586 24.6186 10.234 30.5525 8.90329C32.9832 8.35771 35.4844 8.15343 37.9812 8.15343H123.684C126.181 8.15343 128.682 8.35771 131.113 8.90329C137.047 10.234 142.581 13.1586 146.507 17.6712C151.572 23.4935 153.013 31.7671 150.13 38.8227C148.69 42.3492 146.194 45.5697 142.922 47.7402C139.359 50.1032 134.894 51.0154 130.622 50.3058C126.607 49.6384 122.736 47.5141 120.342 44.3364C117.962 41.1748 117.398 37.0228 118.736 33.3576C119.348 31.6822 120.341 30.2523 121.58 28.9426C122.912 27.7161 124.824 26.5358 126.918 26.123C129.286 25.6556 131.807 25.9961 133.884 27.1982C135.691 28.244 137.169 29.8858 137.801 31.8251C138.473 33.8906 137.868 36.5899 136.373 38.0871C135.023 39.4111 133.337 40.2299 131.368 40.1593C130.443 40.1256 129.348 39.9247 128.559 39.4372C128.053 39.1253 127.603 38.7293 127.12 38.3864C126.715 38.0989 126.469 38.3779 126.062 38.6226C125.713 38.8327 125.828 38.9067 126.026 39.2556C126.304 39.744 126.648 40.1971 127.045 40.6048C128.452 42.0516 130.488 42.8762 132.533 43.0469C136.488 43.3781 140.128 41.0604 142.04 37.8593C144.112 34.3874 143.89 30.0791 141.934 26.6098C138.695 20.8657 131.62 18.1512 125.014 19.2348C117.795 20.4193 112.355 25.9969 110.484 32.5935C108.517 39.5254 110.598 46.8542 115.839 51.9863C121.307 57.3404 129.386 59.9001 137.135 58.8998C145.412 57.8313 152.62 52.8925 156.74 46.0287C160.809 39.2505 161.926 31.0215 159.722 23.496ZM49.9424 69.6684C49.9424 66.5757 47.3124 64.0689 44.0685 64.0689C40.8238 64.0689 38.1938 66.5757 38.1938 69.6684V137.225H41.2948L49.9424 69.6684ZM111.615 69.6684C111.615 66.5757 114.246 64.0689 117.49 64.0689C120.735 64.0689 123.365 66.5757 123.365 69.6684V137.225H120.264L111.615 69.6684Z" fill="#3A3A38"/>
</svg>
