<svg width="161" height="161" viewBox="0 0 161 161" fill="none" xmlns="http://www.w3.org/2000/svg">
<path d="M92.0076 68.8186C95.3678 69.4104 99.0104 69.4087 102.371 68.8143L105.256 60.2464L89.1165 60.2532L92.0076 68.8186ZM100.496 72.2105L105.591 121.408L97.0383 127.33L88.4821 121.415L93.547 72.1746C94.7451 72.3131 95.9626 72.391 97.1903 72.391C98.3031 72.3901 99.4067 72.3251 100.496 72.2105ZM124.552 68.8049C127.913 69.3967 131.555 69.3959 134.916 68.8015L137.801 60.2335L121.661 60.2395L124.552 68.8049ZM133.042 72.1968L138.135 121.395L129.584 127.316L121.028 121.402L126.093 72.1609C127.291 72.3003 128.508 72.3781 129.735 72.3773C130.848 72.3773 131.952 72.3123 133.042 72.1968ZM59.4627 68.8323C62.823 69.4232 66.4655 69.4224 69.825 68.828L72.7107 60.26L56.5716 60.266L59.4627 68.8323ZM67.9514 72.2233L73.0449 121.422L64.4934 127.344L55.9372 121.429L61.0021 72.1874C62.2002 72.3268 63.417 72.4047 64.6446 72.4038C65.7575 72.4038 66.8618 72.3388 67.9514 72.2233ZM26.917 68.8451C30.2773 69.4369 33.9199 69.4352 37.2801 68.8408L40.165 60.2729L24.026 60.2797L26.917 68.8451ZM35.4057 72.237L40.5 121.435L31.9478 127.356L23.3916 121.442L28.4564 72.2011C29.6546 72.3397 30.8721 72.4175 32.0998 72.4175C33.2126 72.4166 34.3161 72.3516 35.4057 72.237Z" fill="#3A3A38"/>
<path d="M22.8651 30.0823L138.467 30.028L80.6596 7.69795L22.8651 30.0823ZM0.666992 31.4806L80.6573 0.5L160.667 31.4056V31.4086C160.667 34.445 158.734 36.9062 156.348 36.9072L4.98966 36.9782C2.60266 36.9792 0.666992 34.5171 0.666992 31.4806ZM146.461 42.2844L14.8564 42.3466C14.8572 45.6989 16.9937 48.4156 19.6281 48.4137L141.693 48.3564C144.327 48.3554 146.461 45.6367 146.461 42.2844ZM135.315 160.449L135.313 153.017L26.0904 153.067L26.0927 160.5L135.315 160.449ZM4.39485 160.5C4.39407 156.395 7.0083 153.066 10.2336 153.065L14.0452 153.063L14.0429 147.033C14.0421 142.875 16.6897 139.504 19.9561 139.502L141.439 139.445C144.706 139.444 147.355 142.812 147.356 146.97L147.359 153L151.169 152.998C154.395 152.997 157.01 156.323 157.012 160.428L141.52 160.436L141.516 146.878L19.884 146.935L19.8879 160.493L4.39485 160.5Z" fill="#3A3A38"/>
</svg>
