<svg width="161" height="161" viewBox="0 0 161 161" fill="none" xmlns="http://www.w3.org/2000/svg">
<path d="M80.5005 16.6938C70.168 16.6938 60.05 17.4824 50.4121 18.9815V26.2753C60.024 24.7625 70.146 23.967 80.5005 23.967C90.855 23.967 100.977 24.7625 110.589 26.2753V18.9815C100.951 17.4824 90.8337 16.6938 80.5005 16.6938ZM110.589 153.013H50.4121V160.5H110.589V153.013ZM105.01 137.979H55.9906V145.466H105.01V137.979ZM55.9906 40.0461H105.01V32.5592H55.9906V40.0461ZM96.0779 47.593H90.2669V130.432H96.0779V47.593ZM83.4057 47.593H77.5947V130.432H83.4057V47.593ZM70.7335 130.432H64.9225V47.593H70.7335V130.432Z" fill="#3A3A38"/>
<path d="M138.678 81.1964L137.37 22.7778C137.597 22.7924 137.823 22.7907 138.047 22.765L148.705 81.4692C145.413 81.3053 142.063 81.2221 138.678 81.1964ZM125.106 81.4692L135.838 22.3574C136.035 22.4552 136.233 22.5341 136.432 22.5976L135.12 81.1964C131.74 81.2221 128.394 81.3053 125.106 81.4692ZM25.8804 81.1964L24.5683 22.5976C24.7675 22.5341 24.9653 22.4552 25.1617 22.3574L35.8939 81.4692C32.6064 81.3053 29.2604 81.2221 25.8804 81.1964ZM12.2951 81.4692L22.9533 22.765C23.177 22.7907 23.4028 22.7924 23.6299 22.7778L22.3219 81.1964C18.9372 81.2221 15.5872 81.3053 12.2951 81.4692ZM153.001 81.7361L139.316 22.402C140.191 21.9944 140.973 21.2745 141.558 20.2979C143.334 21.0659 145.104 21.8665 146.865 22.7083C146.969 22.4355 147.337 21.7438 147.271 21.4959C147.156 21.0574 145.892 20.3975 145.603 20.1718C137.89 14.1359 129.24 9.93898 120.534 6.97939C111.219 3.81301 101.688 1.8737 92.0799 1.02676C72.996 -0.655113 53.5205 1.61284 35.2199 8.94958C30.7882 10.7259 26.3699 12.8479 22.1933 15.466C20.3012 16.6519 18.4071 17.8618 16.5888 19.2288C15.7423 19.8646 14.9112 20.5399 14.0773 21.2041C13.5978 21.586 13.6564 21.5628 13.9328 22.2158C14.2358 22.9314 14.4017 22.5719 15.0091 22.2819C15.9475 21.8348 16.8772 21.3568 17.823 20.9364C18.3518 20.7021 18.8819 20.4764 19.4114 20.2465C20.0002 21.2487 20.794 21.9867 21.6838 22.402L7.99929 81.7361C5.46978 81.9094 2.96091 82.1077 0.5 82.3591C5.62962 93.1334 14.2771 100.229 24.1015 100.229C33.9251 100.229 42.5726 93.1334 47.7022 82.3591C45.232 82.1068 42.7138 81.9086 40.175 81.7353L26.308 21.5542C27.5228 20.4138 28.2567 18.6341 28.3413 16.742C31.3017 15.726 34.2901 14.8293 37.2858 14.0458C55.9255 9.17012 75.1319 7.79545 94.1046 9.20101C103.711 9.91238 113.271 11.3986 122.714 13.7927C126.069 14.6431 129.381 15.6599 132.661 16.8106C132.761 18.677 133.492 20.4275 134.692 21.5542L120.825 81.7353C118.286 81.9086 115.768 82.1068 113.298 82.3591C118.427 93.1334 127.075 100.229 136.899 100.229C146.723 100.229 155.37 93.1334 160.5 82.3591C158.039 82.1077 155.53 81.9094 153.001 81.7361Z" fill="#3A3A38"/>
</svg>
