<svg width="169" height="37" viewBox="0 0 169 37" fill="none" xmlns="http://www.w3.org/2000/svg">
<path d="M7.48771 0.000102997H37.5121V1.61165H7.48771V0.000102997ZM6.11683 3.13023L38.8832 3.13041C44.3109 3.13041 47.0468 9.72377 43.2052 13.5654C39.3634 17.4068 32.7704 14.6705 32.7704 9.24313H34.3818C34.3818 13.2407 39.2378 15.2538 42.0657 12.4257C44.8933 9.59818 42.8811 4.74195 38.8832 4.74195H6.11683C2.11857 4.74195 0.106018 9.59818 2.93408 12.4257C5.76196 15.2538 10.618 13.241 10.618 9.24313H12.2296C12.2296 14.6709 5.63636 17.4068 1.79457 13.5654C-2.04669 9.72377 0.689103 3.13041 6.11683 3.13041V3.13023ZM29.5201 9.24313H31.1315V31.4333H35.806V33.0448H29.5201V9.24313ZM15.4798 9.24313V33.0448H9.19328V31.4333H13.8683V9.24313H15.4798ZM18.6105 36.1753H7.49893V34.5639H16.9986V9.24313H18.61L18.6105 36.1753ZM24.8713 36.1753H20.1287V9.24313H21.7406V34.5639H23.2594L23.259 9.24313H24.8713V36.1753ZM28.0012 34.5639H37.5009V36.1753H26.3898C26.3898 27.198 26.3895 18.2206 26.3895 9.24313H28.0012V34.5639ZM37.5121 9.24313C37.5121 10.4614 38.9916 11.0731 39.852 10.2123C40.7133 9.35136 40.1011 7.87226 38.8832 7.87226H6.11683C4.89891 7.87226 4.28706 9.35154 5.14748 10.2123C6.00825 11.0731 7.48771 10.4614 7.48771 9.24313H9.09925C9.09925 11.8907 5.88247 13.2263 4.00833 11.3518C2.13366 9.47714 3.46927 6.26071 6.11683 6.26071H38.8832C41.5304 6.26071 42.8663 9.47696 40.992 11.3518C39.1173 13.2263 35.9007 11.8909 35.9007 9.24313H37.5121Z" fill="white"/>
<path d="M60.84 26.5874V26.3474L61.632 26.1074C61.92 26.0274 62.128 25.8754 62.256 25.6514C62.384 25.4114 62.448 25.1314 62.448 24.8114V13.2674C62.272 12.8834 62.128 12.5954 62.016 12.4034C61.92 12.2114 61.808 12.0514 61.68 11.9234C61.552 11.7794 61.376 11.6034 61.152 11.3954L60.744 10.9874V10.7474H64.992L72.96 21.6194V12.5714C72.96 12.2514 72.904 11.9634 72.792 11.7074C72.696 11.4514 72.488 11.2834 72.168 11.2034L71.376 10.9874V10.7474H74.808V10.9874L74.16 11.2034C73.872 11.2994 73.696 11.4674 73.632 11.7074C73.568 11.9474 73.536 12.2274 73.536 12.5474V26.6594H72.192L63.024 14.0594V24.8114C63.024 25.1314 63.072 25.4034 63.168 25.6274C63.264 25.8514 63.464 26.0114 63.768 26.1074L64.488 26.3474V26.5874H60.84ZM81.4583 26.9474C80.2423 26.9474 79.1863 26.6994 78.2903 26.2034C77.3943 25.6914 76.6983 24.9714 76.2023 24.0434C75.7223 23.1154 75.4823 22.0274 75.4823 20.7794C75.4823 19.5314 75.7383 18.4514 76.2503 17.5394C76.7783 16.6274 77.4903 15.9234 78.3863 15.4274C79.2983 14.9314 80.3223 14.6834 81.4583 14.6834C82.5943 14.6834 83.6103 14.9314 84.5063 15.4274C85.4023 15.9074 86.1063 16.6034 86.6183 17.5154C87.1463 18.4274 87.4103 19.5154 87.4103 20.7794C87.4103 22.0434 87.1623 23.1394 86.6663 24.0674C86.1863 24.9794 85.4983 25.6914 84.6023 26.2034C83.7223 26.6994 82.6743 26.9474 81.4583 26.9474ZM81.4583 26.4674C82.0183 26.4674 82.4663 26.3074 82.8023 25.9874C83.1383 25.6674 83.3783 25.0994 83.5223 24.2834C83.6823 23.4674 83.7623 22.3154 83.7623 20.8274C83.7623 19.3234 83.6823 18.1634 83.5223 17.3474C83.3783 16.5314 83.1383 15.9634 82.8023 15.6434C82.4663 15.3234 82.0183 15.1634 81.4583 15.1634C80.8983 15.1634 80.4423 15.3234 80.0903 15.6434C79.7543 15.9634 79.5063 16.5314 79.3463 17.3474C79.2023 18.1634 79.1303 19.3234 79.1303 20.8274C79.1303 22.3154 79.2023 23.4674 79.3463 24.2834C79.5063 25.0994 79.7543 25.6674 80.0903 25.9874C80.4423 26.3074 80.8983 26.4674 81.4583 26.4674ZM88.4644 26.5874V26.3474L88.8244 26.2514C89.1444 26.1554 89.3604 26.0114 89.4724 25.8194C89.6004 25.6274 89.6644 25.3794 89.6644 25.0754V17.5634C89.6644 17.2114 89.6004 16.9554 89.4724 16.7954C89.3604 16.6194 89.1444 16.4994 88.8244 16.4354L88.4644 16.3394V16.0994L92.5924 14.7074L92.8324 14.9474L93.0484 17.0114V17.2034C93.2724 16.7554 93.5604 16.3474 93.9124 15.9794C94.2804 15.5954 94.6804 15.2834 95.1124 15.0434C95.5604 14.8034 96.0004 14.6834 96.4324 14.6834C97.0404 14.6834 97.5044 14.8514 97.8244 15.1874C98.1444 15.5234 98.3044 15.9474 98.3044 16.4594C98.3044 17.0034 98.1444 17.4274 97.8244 17.7314C97.5204 18.0194 97.1524 18.1634 96.7204 18.1634C96.0484 18.1634 95.4564 17.8274 94.9444 17.1554L94.8964 17.1074C94.7364 16.8834 94.5524 16.7634 94.3444 16.7474C94.1364 16.7154 93.9444 16.8114 93.7684 17.0354C93.6084 17.1794 93.4724 17.3554 93.3604 17.5634C93.2644 17.7554 93.1684 17.9794 93.0724 18.2354V24.9314C93.0724 25.5714 93.3524 25.9714 93.9124 26.1314L94.6804 26.3474V26.5874H88.4644ZM103.829 26.9474C102.805 26.9474 102.005 26.6914 101.429 26.1794C100.869 25.6674 100.589 24.8514 100.589 23.7314V15.5234H98.9331V15.2834L99.5091 15.1874C100.005 15.0754 100.429 14.9154 100.781 14.7074C101.149 14.4994 101.509 14.2194 101.861 13.8674L103.829 11.6834H104.069L103.997 15.0434H106.685V15.5234H103.973V24.1634C103.973 24.7234 104.093 25.1474 104.333 25.4354C104.589 25.7234 104.909 25.8674 105.293 25.8674C105.629 25.8674 105.925 25.7874 106.181 25.6274C106.437 25.4514 106.693 25.2194 106.949 24.9314L107.189 25.1714C106.869 25.7154 106.429 26.1474 105.869 26.4674C105.309 26.7874 104.629 26.9474 103.829 26.9474ZM108.013 26.5874V26.3474L108.301 26.2514C108.877 26.0594 109.165 25.6594 109.165 25.0514V12.2354C109.165 11.8994 109.109 11.6514 108.997 11.4914C108.885 11.3314 108.669 11.2114 108.349 11.1314L107.989 11.0354V10.7954L112.213 9.7634L112.597 9.9794L112.501 13.3634V16.3634C113.061 15.8994 113.661 15.5074 114.301 15.1874C114.957 14.8514 115.677 14.6834 116.461 14.6834C117.501 14.6834 118.325 14.9794 118.933 15.5714C119.557 16.1634 119.869 17.0754 119.869 18.3074V25.0754C119.869 25.3954 119.933 25.6514 120.061 25.8434C120.189 26.0354 120.413 26.1794 120.733 26.2754L120.925 26.3474V26.5874H115.309V26.3474L115.597 26.2754C116.173 26.0834 116.461 25.6754 116.461 25.0514V17.5154C116.461 16.8754 116.349 16.4354 116.125 16.1954C115.917 15.9554 115.541 15.8354 114.997 15.8354C114.645 15.8354 114.261 15.9074 113.845 16.0514C113.429 16.1794 113.005 16.4114 112.573 16.7474V25.0994C112.573 25.7234 112.861 26.1234 113.437 26.2994L113.629 26.3474V26.5874H108.013ZM121.863 26.5874V26.3474L122.199 26.2514C122.503 26.1714 122.711 26.0354 122.823 25.8434C122.951 25.6514 123.023 25.3954 123.039 25.0754V17.5634C123.039 17.2114 122.983 16.9554 122.871 16.7954C122.759 16.6194 122.543 16.4994 122.223 16.4354L121.863 16.3394V16.0994L125.967 14.7074L126.207 14.9474L126.399 16.5794C126.927 16.0514 127.527 15.6034 128.199 15.2354C128.887 14.8674 129.599 14.6834 130.335 14.6834C131.103 14.6834 131.719 14.8434 132.183 15.1634C132.647 15.4674 132.999 15.9474 133.239 16.6034C133.863 16.0114 134.535 15.5474 135.255 15.2114C135.991 14.8594 136.703 14.6834 137.391 14.6834C138.527 14.6834 139.359 14.9554 139.887 15.4994C140.431 16.0434 140.703 16.8994 140.703 18.0674V25.0994C140.703 25.7234 140.991 26.1154 141.567 26.2754L141.831 26.3474V26.5874H136.287V26.3474L136.527 26.2754C136.831 26.1794 137.039 26.0354 137.151 25.8434C137.279 25.6514 137.343 25.3954 137.343 25.0754V17.7314C137.343 17.0594 137.223 16.6034 136.983 16.3634C136.743 16.1074 136.359 15.9794 135.831 15.9794C135.415 15.9794 135.007 16.0754 134.607 16.2674C134.223 16.4434 133.815 16.7154 133.383 17.0834C133.463 17.3394 133.511 17.6194 133.527 17.9234C133.559 18.2274 133.575 18.5474 133.575 18.8834V25.0994C133.591 25.7234 133.879 26.1154 134.439 26.2754L134.655 26.3474V26.5874H129.087V26.3474L129.423 26.2514C129.727 26.1554 129.935 26.0194 130.047 25.8434C130.175 25.6514 130.239 25.3954 130.239 25.0754V17.7554C130.239 17.1154 130.119 16.6594 129.879 16.3874C129.655 16.1154 129.263 15.9794 128.703 15.9794C128.335 15.9794 127.967 16.0754 127.599 16.2674C127.231 16.4434 126.847 16.7074 126.447 17.0594V25.0994C126.447 25.7234 126.727 26.1154 127.287 26.2754L127.503 26.3474V26.5874H121.863ZM146.132 26.9474C145.204 26.9474 144.42 26.6834 143.78 26.1554C143.156 25.6274 142.844 24.8674 142.844 23.8754C142.844 23.1234 143.228 22.4354 143.996 21.8114C144.764 21.1714 145.972 20.6914 147.62 20.3714C147.876 20.3234 148.164 20.2754 148.484 20.2274C148.804 20.1634 149.14 20.0994 149.492 20.0354V18.1394C149.492 17.0514 149.356 16.2914 149.084 15.8594C148.828 15.4114 148.42 15.1874 147.86 15.1874C147.476 15.1874 147.172 15.3154 146.948 15.5714C146.724 15.8114 146.58 16.2354 146.516 16.8434L146.468 17.1074C146.436 17.7954 146.268 18.2994 145.964 18.6194C145.66 18.9394 145.284 19.0994 144.836 19.0994C144.42 19.0994 144.076 18.9714 143.804 18.7154C143.532 18.4594 143.396 18.1154 143.396 17.6834C143.396 17.0274 143.62 16.4754 144.068 16.0274C144.532 15.5794 145.14 15.2434 145.892 15.0194C146.644 14.7954 147.46 14.6834 148.34 14.6834C149.764 14.6834 150.86 15.0354 151.628 15.7394C152.412 16.4274 152.804 17.5554 152.804 19.1234V24.4274C152.804 25.1474 153.14 25.5074 153.812 25.5074H154.34L154.556 25.6994C154.252 26.0834 153.916 26.3794 153.548 26.5874C153.196 26.7954 152.692 26.8994 152.036 26.8994C151.332 26.8994 150.772 26.7394 150.356 26.4194C149.956 26.0834 149.692 25.6434 149.564 25.0994C149.084 25.6114 148.588 26.0514 148.076 26.4194C147.58 26.7714 146.932 26.9474 146.132 26.9474ZM147.596 25.4834C147.916 25.4834 148.212 25.4114 148.484 25.2674C148.772 25.1074 149.108 24.8674 149.492 24.5474V20.5154C149.332 20.5474 149.172 20.5794 149.012 20.6114C148.852 20.6434 148.668 20.6754 148.46 20.7074C147.724 20.8994 147.132 21.2274 146.684 21.6914C146.252 22.1394 146.036 22.7474 146.036 23.5154C146.036 24.1714 146.188 24.6674 146.492 25.0034C146.796 25.3234 147.164 25.4834 147.596 25.4834ZM155.003 26.5874V26.3474L155.339 26.2514C155.899 26.0914 156.179 25.6994 156.179 25.0754V17.5634C156.179 17.2114 156.123 16.9554 156.011 16.7954C155.899 16.6194 155.683 16.4994 155.363 16.4354L155.003 16.3394V16.0994L159.107 14.7074L159.347 14.9474L159.539 16.3874C160.099 15.8914 160.731 15.4834 161.435 15.1634C162.139 14.8434 162.835 14.6834 163.523 14.6834C164.579 14.6834 165.387 14.9714 165.947 15.5474C166.523 16.1234 166.811 17.0034 166.811 18.1874V25.0994C166.811 25.7234 167.115 26.1154 167.723 26.2754L167.939 26.3474V26.5874H162.275V26.3474L162.587 26.2514C163.147 26.0754 163.427 25.6834 163.427 25.0754V17.4194C163.427 16.3954 162.915 15.8834 161.891 15.8834C161.187 15.8834 160.419 16.2354 159.587 16.9394V25.0994C159.587 25.7234 159.867 26.1154 160.427 26.2754L160.643 26.3474V26.5874H155.003Z" fill="white"/>
</svg>
