<svg width="70" height="57" viewBox="0 0 70 57" fill="none" xmlns="http://www.w3.org/2000/svg">
<path d="M11.6475 3.8147e-06H58.3522V2.50686H11.6475V3.8147e-06ZM9.51507 4.86908L60.4849 4.86937C68.928 4.86937 73.184 15.1257 67.2081 21.1015C61.232 27.0771 50.9762 22.8206 50.9762 14.378H53.4828C53.4828 20.5965 61.0367 23.7279 65.4356 19.3287C69.834 14.9303 66.7039 7.37621 60.4849 7.37621H9.51507C3.29555 7.37621 0.164917 14.9303 4.56412 19.3287C8.96305 23.7279 16.5169 20.597 16.5169 14.378H19.0237C19.0237 22.8212 8.76767 27.0771 2.79156 21.1015C-3.18374 15.1257 1.07194 4.86937 9.51507 4.86937V4.86908ZM45.9202 14.378H48.4268V48.896H55.6982V51.4029H45.9202V14.378ZM24.0797 14.378V51.4029H14.3007V48.896H21.5729V14.378H24.0797ZM28.9497 56.2725H11.665V53.7659H26.4423V14.378H28.9488L28.9497 56.2725ZM38.6886 56.2725H31.3113V14.378H33.8187V53.7659H36.1812L36.1807 14.378H38.6886V56.2725ZM43.5575 53.7659H58.3347V56.2725H41.0509C41.0509 42.3079 41.0503 28.343 41.0503 14.378H43.5575V53.7659ZM58.3522 14.378C58.3522 16.2731 60.6535 17.2246 61.992 15.8857C63.3318 14.5464 62.3794 12.2456 60.4849 12.2456H9.51507C7.62053 12.2456 6.66877 14.5467 8.00719 15.8857C9.34616 17.2246 11.6475 16.2731 11.6475 14.378H14.1544C14.1544 18.4965 9.15052 20.5741 6.23518 17.6582C3.31902 14.7421 5.39665 9.73872 9.51507 9.73872H60.4849C64.6028 9.73872 66.681 14.7418 63.7654 17.6582C60.8492 20.5741 55.8456 18.4967 55.8456 14.378H58.3522Z" fill="white"/>
</svg>
